<svg xmlns="http://www.w3.org/2000/svg" viewBox="0 0 980 980" fill="none" shape-rendering="auto"><metadata xmlns:rdf="http://www.w3.org/1999/02/22-rdf-syntax-ns#" xmlns:xsi="http://www.w3.org/2001/XMLSchema-instance" xmlns:dc="http://purl.org/dc/elements/1.1/" xmlns:dcterms="http://purl.org/dc/terms/"><rdf:RDF><rdf:Description><dc:title>Lorelei</dc:title><dc:creator>Lisa Wischofsky</dc:creator><dc:source xsi:type="dcterms:URI">https://www.figma.com/community/file/1198749693280469639</dc:source><dcterms:license xsi:type="dcterms:URI">https://creativecommons.org/publicdomain/zero/1.0/</dcterms:license><dc:rights>Remix of „Lorelei” (https://www.figma.com/community/file/1198749693280469639) by „Lisa Wischofsky”, licensed under „CC0 1.0” (https://creativecommons.org/publicdomain/zero/1.0/)</dc:rights></rdf:Description></rdf:RDF></metadata><mask id="viewboxMask"><rect width="980" height="980" rx="490" ry="490" x="0" y="0" fill="#fff" /></mask><g mask="url(#viewboxMask)"><g transform="translate(10 -60)"><path d="M495 231a231 231 0 0 1 219 204c1 10 2 21 0 30-1 4-1 7-4 8-3-10-3-19-4-29a220 220 0 0 0-239-205c-42 4-83 19-117 44l-17 13a221 221 0 0 0-78 164c0 23 7 43 15 64h17c3 1 4 4 2 6l-6 2c-15 1-31 7-42 17-8 9-14 19-16 31-3 15 0 32 8 45 9 15 24 27 40 33 14 5 29 7 43 5 4-1 8-2 11 0v3c-5 5-11 6-18 7-16 3-33-1-47-8a86 86 0 0 1-47-58c-4-18-1-37 9-53 8-12 20-21 34-26-7-14-10-28-12-43-2-18-2-35 0-53 1-13 4-25 8-38a227 227 0 0 1 99-122c41-28 92-43 142-41Z" fill="#000"/><path d="M535 244a220 220 0 0 1 171 200c1 10 1 19 4 29l-2 18v22c-3 4-4 9-4 14-2 8-2 15-2 23v65c0 21-3 42-11 61-4 13-10 24-18 35-10 12-21 22-34 31-11 9-24 17-37 24l-22 14-12 8 9-2c-3 11-3 24-4 36 0 8 1 16 7 22a235 235 0 0 0 81 45c6 7 11 16 13 25 1 9 0 18-4 27-6 10-14 18-23 24-13 10-28 17-43 22a417 417 0 0 1-217 11c-16-3-33-9-48-17-10-5-21-12-28-21-6-6-10-14-11-22-2-10 0-21 5-30 21-13 39-32 49-54 5-11 7-22 8-34 1-16 0-32-1-47-2-20-3-41-8-61 11 12 23 24 37 32 17 11 36 20 55 26 20 7 41 13 63 18l25 3c3 0 6 0 8-2 2-1 1-2 2-3l-17-2c-29-7-58-16-87-27-18-7-36-15-53-27-18-13-33-30-47-47l-11-16-1-1v-3c-3-2-7-1-11 0-14 2-29 0-43-5-16-6-31-18-40-33-8-13-11-30-8-45 2-12 8-22 16-31 11-10 27-16 42-17l6-2c2-2 1-5-2-6h-17c-8-21-15-41-15-64-1-14 2-27 5-41a221 221 0 0 1 73-123l17-13a230 230 0 0 1 185-39Z" fill="#ffffff"/><path d="M708 513c3 3 2 7 3 12v29c0 26 2 54 0 80-3 31-14 63-36 86-25 28-57 51-93 64l2 7v35c1 6 4 10 8 14l26 19 32 20 24 12c2 0 3 1 5 3l-19-5c-19-6-37-14-54-25-9-5-19-12-26-20-6-6-7-14-7-22 1-12 1-25 4-36l-9 2 12-8 22-14c13-7 26-15 37-24 13-9 24-19 34-31a178 178 0 0 0 29-96v-65c0-8 0-15 2-23 0-5 1-10 4-14ZM278 574c5 5 4 14 0 19l-3 7c1 3 5 5 7 6 6 3 12 7 19 9 0 4-3 5-7 5-6-1-13-3-18-6-7-3-13-8-13-16 0-6 5-9 6-14 2-4 0-7-1-11 4-1 7-2 10 1ZM328 667l11 16c14 17 29 34 47 47 17 12 35 20 53 27a714 714 0 0 0 104 29c-1 1 0 2-2 3-2 2-5 2-8 2l-25-3a478 478 0 0 1-118-44c-14-8-26-20-37-32 5 20 6 41 8 61 1 15 2 31 1 47-1 12-3 23-8 34-10 22-28 41-49 54l-14 8c2-4 6-6 9-9 13-11 24-25 34-39 6-10 12-21 14-33 4-19 3-39 3-58l-3-59 2-10c-10-11-19-26-22-41Z" fill="#000"/><path d="M681 495c3 0 7 0 10 2 2 1 2 2 1 4l-9 3-24 5c-1 6-1 13-4 19-2 5-6 9-11 9s-9-3-11-7c-3-5-5-11-6-18-4 0-9 1-12-1-1-3 3-4 5-4 12-5 26-7 39-9 7-2 15-2 22-3ZM496 502c5 0 11 0 16 3l3 3c-7 2-13 4-20 4-2 9-4 17-9 25-2 3-5 6-9 5-5-1-10-4-13-9-4-5-8-11-8-18l-56 2c-2-1-6 0-6-3 3-3 8-3 12-4l33-4c19-2 38-4 57-4Z" fill="#000000"/><path d="m650 510-6 17c-4-4-6-10-9-15l15-2ZM484 513l-6 18-4-2c-5-4-8-10-12-15l18-1h4Z" fill="#fff"/><path d="M492 386c7 0 13 0 19 2 8 2 15 5 18 13 4 7 4 14 2 22-1 4-4 7-9 8-8 3-17 1-26-1-7-1-15-3-22-6-6-3-12-8-13-14-2-6 2-13 7-16 7-6 16-7 24-8ZM658 388c5 1 9 4 11 9 2 3 1 8 0 11-1 4-5 8-8 10-5 5-11 6-18 8-5 1-12 3-18 1-2-1-6-4-7-7-3-11 3-25 14-30 8-4 17-4 26-2Z" fill="#000000"/><path d="M607 606c0 3-2 6-4 9-4 6-11 10-18 12-5 1-9-2-13 0-4 0-8 1-12-1-2-1-2-4 0-6 3-4 8-7 12-7 4-1 7-1 10 2l1 7c5-2 7-5 11-8l13-8Z" fill="#000000"/><path d="M476 660c3 0 5 2 7 4l13 7c11 5 23 8 34 11 15 5 30 6 45 6 12 1 23 2 34 1l4 2c-18 9-41 11-61 10-23-1-46-8-66-18-6-4-13-8-14-16-1-3 1-7 4-7Z" fill="#000000"/><path d="M365 270c2 2 4 4 4 7 0 7-6 12-8 18 0 4 0 8 2 11 5 10 13 15 19 23 3 2 4 7 1 10l-13 8-6 10c-6 12-10 26-12 39l-2 14c-2 4-4 7-8 10-8 4-14 10-20 16-5 7-10 14-13 23-3 11-1 25 2 37 2 0 6 0 8 3-4 7-13 11-21 15 6-1 11-3 17-1 1 1 4 1 3 3-3 6-10 9-16 13-8 3-16 3-24 1l-15-4c-2-1-5-1-7-3-11-11-19-24-24-39a168 168 0 0 1-1-97c9-31 25-59 47-82 12-12 26-22 41-29s30-10 46-6ZM333 526c0 2-2 4-4 5-5 6-14 8-22 9-3 1-8 1-11-1 1-4 5-7 8-9 9-5 19-8 29-4Z" fill="#000000"/></g><g transform="translate(10 -60)"></g></g></svg>