<svg xmlns="http://www.w3.org/2000/svg" viewBox="0 0 16 16" fill="none" shape-rendering="crispEdges"><metadata xmlns:rdf="http://www.w3.org/1999/02/22-rdf-syntax-ns#" xmlns:xsi="http://www.w3.org/2001/XMLSchema-instance" xmlns:dc="http://purl.org/dc/elements/1.1/" xmlns:dcterms="http://purl.org/dc/terms/"><rdf:RDF><rdf:Description><dc:title>Pixel Art</dc:title><dc:creator>DiceBear</dc:creator><dc:source xsi:type="dcterms:URI">https://www.figma.com/community/file/1198754108850888330</dc:source><dcterms:license xsi:type="dcterms:URI">https://creativecommons.org/publicdomain/zero/1.0/</dcterms:license><dc:rights>„Pixel Art” (https://www.figma.com/community/file/1198754108850888330) by „DiceBear”, licensed under „CC0 1.0” (https://creativecommons.org/publicdomain/zero/1.0/)</dc:rights></rdf:Description></rdf:RDF></metadata><mask id="viewboxMask"><rect width="16" height="16" rx="8" ry="8" x="0" y="0" fill="#fff" /></mask><g mask="url(#viewboxMask)"><path d="M4 2h8v1h1v3h1v2h-1v3h-1v1H9v1h4v1h1v2H2v-2h1v-1h4v-1H4v-1H3V8H2V6h1V3h1V2Z" fill="#f5cfa0"/><path d="M4 2h8v1h1v3h1v2h-1v3h-1v1H4v-1H3V8H2V6h1V3h1V2Z" fill="#fff" fill-opacity=".1"/><path d="M10 13h3v1h1v2H2v-2h1v-1h3v1h4v-1Z" fill="#d11141"/><path fill="#fff" fill-opacity=".2" d="M11 14h1v2h-1zM4 14h1v2H4z"/><path fill="#fff" d="M4 5h3v2H4zM9 5h3v2H9z"/><path fill="#5b7c8b" d="M11 6h1v1h-1zM6 6h1v1H6z"/><path fill-rule="evenodd" clip-rule="evenodd" d="M12 4H9v1H7V4H4v1H2v1h1v2h1v1h3V8h2v1h3V8h1V6h1V5h-2V4Zm0 1v3H9V5h3ZM7 8H4V5h3v3Z" fill="#323232"/><path fill="#fff" fill-opacity=".3" d="M9 5h3v3H9zM4 5h3v3H4z"/><path fill="#fff" fill-opacity=".2" d="M2 5h1v1H2zM13 5h1v1h-1z"/><path d="M9 9v1H7v1H6v-1h1V9h2Z" fill="#de0f0d"/><g fill="#83623b"><path d="M12 3h2v3h-2zM2 3h2v3H2z"/><path d="M3 2h10v2H3z"/><path d="M4 1h8v2H4z"/></g></g></svg>